<svg width="72" height="55" viewBox="0 0 72 55" fill="none" xmlns="http://www.w3.org/2000/svg">
<path fill-rule="evenodd" clip-rule="evenodd" d="M34.2925 0.600991C33.7225 1.15899 26.5158 5.42499 20.3523 8.85249C11.5479 13.7489 2.71818 18.8676 1.65125 19.6941C0.753342 20.3894 0.69411 20.6196 0.846906 22.816C0.937828 24.1202 1.16155 25.3731 1.34415 25.6004C1.63692 25.9641 4.77809 27.8331 12.4296 32.1959L14.6932 33.4866V36.6212V39.7562L8.20108 44.0969C4.63057 46.4841 1.51241 48.6344 1.27171 48.8755C0.804651 49.3424 0.661665 53.527 1.08911 54.2144C1.39961 54.7135 2.52464 54.7529 3.0166 54.2815C3.21391 54.0925 7.27978 51.7041 12.0523 48.9734C16.8248 46.2426 21.2389 43.7054 21.8614 43.3345C22.4839 42.964 24.606 41.7779 26.5773 40.6986C28.5485 39.6194 31.4139 38.0039 32.9453 37.108L35.7292 35.4794L40.9857 38.5154C43.8768 40.1849 47.2081 42.0689 48.3882 42.7022C49.5683 43.3352 51.8923 44.6534 53.5523 45.631C55.2123 46.6086 57.7589 48.0794 59.2114 48.8995C60.6639 49.7196 63.6987 51.4401 65.9551 52.7234C68.845 54.3662 70.1764 54.9385 70.4579 54.6587C71.0917 54.0287 71.2366 50.0447 70.6537 49.279C70.3779 48.9167 67.5208 47.1145 64.3046 45.2736C56.1045 40.5809 56.758 41.2097 56.7648 38.0136C56.7682 36.5279 56.8953 35.1437 57.0477 34.9375C57.2001 34.7312 60.3183 32.5675 63.9767 30.1292C70.2508 25.948 70.6412 25.618 70.8578 24.3167C71.2807 21.7739 71.1287 20.6616 70.2466 19.843C69.4687 19.1207 59.4732 13.2865 48.2705 7.01574C45.7805 5.62187 42.0968 3.52937 40.0848 2.36574C36.5501 0.321616 35.0459 -0.136634 34.2925 0.600991ZM41.9911 5.25512C44.1997 6.56424 49.4023 9.54624 53.5523 11.8817C63.5783 17.524 68.5828 20.4977 68.9205 21.0137C69.0729 21.2466 69.2001 21.8354 69.2034 22.3217C69.2084 23.0744 69.071 23.1719 68.2833 22.9754C67.774 22.8482 66.2883 22.0964 64.9821 21.3047C62.2673 19.6596 61.4433 19.1864 47.3627 11.1869C41.6757 7.95587 36.8527 5.04024 36.6448 4.70724C36.1559 3.92537 36.5644 2.87499 37.3579 2.87499C37.6974 2.87499 39.7826 3.94599 41.9911 5.25512ZM43.3161 10.7069C65.3107 23.1449 68.075 24.7697 67.952 25.1875C67.8494 25.5355 58.9111 31.7766 56.7361 33.019C55.822 33.541 55.6073 33.478 52.7747 31.8557C51.1272 30.9126 47.9969 29.1246 45.8182 27.8822C43.6394 26.6402 40.0742 24.5852 37.8955 23.3159C35.7167 22.0461 31.6029 19.7541 28.7538 18.2226C25.9046 16.6907 23.57 15.2567 23.5663 15.0355C23.5621 14.8146 26.0265 12.9752 29.042 10.9484C32.0579 8.92149 34.6143 7.11924 34.7234 6.94412C35.1565 6.24774 36.3732 6.78062 43.3161 10.7069ZM25.0682 17.9916C26.2094 18.6734 28.4165 19.9214 29.9727 20.7644C31.529 21.6077 34.7547 23.4385 37.1409 24.8324C39.5272 26.2266 44.4325 29.0155 48.0418 31.0304C51.6512 33.0449 54.7471 34.9172 54.9214 35.1906C55.4394 36.0025 55.3225 39.6254 54.7784 39.6224C54.3698 39.6197 50.1738 37.2707 38.6892 30.6141L35.8989 28.9971L34.3506 29.7869C30.2395 31.8839 23.0098 35.0635 22.7355 34.8951C22.3488 34.6577 22.3239 16.7496 22.7102 16.7511C22.8657 16.7515 23.9269 17.3099 25.0682 17.9916ZM14.8818 25.6026C14.8818 30.9036 14.8226 31.4327 14.2552 31.216C13.558 30.9501 5.29193 26.2866 4.17106 25.5265C3.53007 25.0922 3.98808 24.7784 8.69833 22.4256C11.5803 20.9856 14.1511 19.7946 14.4102 19.7789C14.7686 19.7567 14.8818 21.1551 14.8818 25.6026ZM43.0196 34.9705C46.1151 36.742 51.9583 40.0611 56.0046 42.3464C68.7217 49.5295 69.5864 50.1306 69.5864 51.7877C69.5864 52.1106 69.374 52.375 69.1148 52.375C68.5753 52.375 64.2729 50.0252 55.0614 44.7002C51.5339 42.661 46.5803 39.8515 44.0537 38.4569C36.5022 34.2899 35.4492 33.4349 36.426 32.2649C36.6625 31.9817 36.9764 31.75 37.1239 31.75C37.2711 31.75 39.9241 33.1994 43.0196 34.9705Z" fill="black"/>
</svg>
