<svg width="65" height="50" viewBox="0 0 65 50" fill="none" xmlns="http://www.w3.org/2000/svg">
<path fill-rule="evenodd" clip-rule="evenodd" d="M30.9834 0.30352C30.4564 0.815858 23.7932 4.73274 18.0946 7.87976C9.95418 12.3755 1.79039 17.0753 0.803932 17.8342C-0.0262578 18.4726 -0.0810206 18.6839 0.0602553 20.7006C0.144318 21.8982 0.351165 23.0484 0.519993 23.2571C0.790682 23.5911 3.69496 25.3071 10.7694 29.3129L12.8623 30.498V33.3762V36.2546L6.85979 40.24C3.55858 42.4319 0.675564 44.4062 0.453017 44.6276C0.0211829 45.0563 -0.111023 48.8984 0.284189 49.5296C0.571271 49.9879 1.61145 50.024 2.06631 49.5912C2.24873 49.4177 6.00798 47.2247 10.4205 44.7175C14.8331 42.2101 18.9143 39.8806 19.4898 39.54C20.0654 39.1998 22.0274 38.1108 23.8501 37.1198C25.6726 36.1289 28.3219 34.6456 29.7378 33.8231L32.3117 32.3277L37.1718 35.1153C39.8448 36.6482 42.9249 38.378 44.016 38.9596C45.1071 39.5408 47.2558 40.751 48.7906 41.6486C50.3254 42.5462 52.68 43.8966 54.0229 44.6496C55.3659 45.4026 58.1718 46.9823 60.258 48.1606C62.9299 49.6691 64.1609 50.1944 64.4212 49.9376C65.0072 49.3592 65.1412 45.7012 64.6022 44.9981C64.3472 44.6655 61.7056 43.0107 58.732 41.3204C51.1503 37.0118 51.7545 37.5892 51.7608 34.6545C51.764 33.2904 51.8815 32.0196 52.0224 31.8302C52.1633 31.6408 55.0463 29.6541 58.4288 27.4154C64.2297 23.5763 64.5907 23.2733 64.7909 22.0786C65.1819 19.7438 65.0414 18.7225 64.2258 17.9709C63.5066 17.3078 54.265 11.9509 43.9072 6.19336C41.605 4.91353 38.1991 2.99226 36.3388 1.92386C33.0707 0.0470116 31.68 -0.373739 30.9834 0.30352ZM38.1014 4.57675C40.1434 5.77881 44.9536 8.51679 48.7906 10.6612C58.0605 15.8417 62.6875 18.5721 62.9997 19.0459C63.1407 19.2596 63.2583 19.8002 63.2613 20.2468C63.2659 20.9379 63.1389 21.0274 62.4106 20.847C61.9397 20.7303 60.5661 20.0399 59.3584 19.3131C56.8483 17.8025 56.0865 17.368 43.0678 10.0231C37.8097 7.05653 33.3505 4.37952 33.1583 4.07375C32.7062 3.35586 33.0839 2.39143 33.8176 2.39143C34.1315 2.39143 36.0594 3.37479 38.1014 4.57675ZM39.3264 9.58241C59.6622 21.0026 62.218 22.4945 62.1043 22.878C62.0094 23.1976 53.7453 28.9279 51.7343 30.0687C50.8891 30.5479 50.6906 30.4901 48.0717 29.0006C46.5484 28.1346 43.6542 26.493 41.6398 25.3523C39.6253 24.2119 36.329 22.3251 34.3146 21.1596C32.3002 19.9937 28.4966 17.8893 25.8624 16.4831C23.2281 15.0766 21.0696 13.76 21.0662 13.5568C21.0623 13.354 23.3408 11.6652 26.1289 9.80415C28.9173 7.94312 31.2809 6.28839 31.3818 6.12753C31.7822 5.48821 32.9072 5.97741 39.3264 9.58241ZM22.4548 16.271C23.5099 16.897 25.5505 18.0429 26.9894 18.8169C28.4283 19.5913 31.4107 21.2722 33.617 22.552C35.8233 23.8321 40.3586 26.3928 43.6957 28.2428C47.0329 30.0924 49.8953 31.8116 50.0565 32.0626C50.5354 32.808 50.4273 36.1344 49.9242 36.1317C49.5465 36.1293 45.6669 33.9725 35.0485 27.8606L32.4686 26.3759L31.0371 27.101C27.2361 29.0264 20.5516 31.9459 20.298 31.7912C19.9405 31.5734 19.9175 15.1306 20.2746 15.132C20.4184 15.1324 21.3996 15.6451 22.4548 16.271ZM13.0366 23.2592C13.0366 28.1264 12.9819 28.6123 12.4573 28.4132C11.8127 28.1691 4.17 23.8872 3.13373 23.1893C2.54108 22.7906 2.96454 22.5024 7.31949 20.3421C9.98413 19.02 12.361 17.9264 12.6006 17.912C12.932 17.8917 13.0366 19.1756 13.0366 23.2592ZM39.0523 31.8605C41.9143 33.487 47.3168 36.5345 51.058 38.6328C62.8159 45.2281 63.6154 45.78 63.6154 47.3016C63.6154 47.5979 63.419 47.8407 63.1794 47.8407C62.6806 47.8407 58.7027 45.6833 50.1859 40.7941C46.9244 38.9216 42.3444 36.342 40.0084 35.0616C33.0264 31.2356 32.0528 30.4505 32.956 29.3763C33.1746 29.1163 33.4649 28.9035 33.6012 28.9035C33.7373 28.9035 36.1903 30.2343 39.0523 31.8605Z" fill="white"/>
</svg>
