<svg width="29" height="30" viewBox="0 0 29 30" fill="none" xmlns="http://www.w3.org/2000/svg">
<g clip-path="url(#clip0_130_4351)">
<path d="M14.5 0.46875C6.49185 0.46875 0 6.97459 0 15C0 23.0254 6.49185 29.5312 14.5 29.5312C22.5082 29.5312 29 23.0254 29 15C29 6.97459 22.5082 0.46875 14.5 0.46875ZM21.221 10.3512C21.0028 12.6489 20.0586 18.2249 19.578 20.7984C19.3748 21.8873 18.9745 22.2525 18.5871 22.2882C17.7452 22.3659 17.1057 21.7305 16.2901 21.1948C15.0139 20.3564 14.293 19.8345 13.0542 19.0164C11.6226 18.071 12.5506 17.5516 13.3665 16.702C13.58 16.4797 17.2901 13.0979 17.3619 12.7911C17.3708 12.7527 17.3794 12.6094 17.2944 12.5342C17.2094 12.459 17.0845 12.4845 16.9942 12.5049C16.8662 12.534 14.8275 13.8845 10.878 16.5562C10.2993 16.9544 9.7752 17.1484 9.30555 17.1383C8.78782 17.1271 7.79194 16.8449 7.05156 16.6037C6.1435 16.3079 5.42177 16.1515 5.48462 15.6492C5.51737 15.3874 5.87694 15.1199 6.56335 14.8464C10.7904 13.0008 13.6091 11.784 15.0194 11.196C19.0462 9.5175 19.8829 9.22594 20.4283 9.21621C20.5483 9.21422 20.8165 9.24398 20.9902 9.38525C21.1058 9.48589 21.1794 9.62632 21.1966 9.77877C21.226 9.96806 21.2342 10.1601 21.221 10.3512Z" fill="white"/>
</g>
<defs>
<clipPath id="clip0_130_4351">
<rect width="29" height="30" fill="white"/>
</clipPath>
</defs>
</svg>
