<svg width="30" height="30" viewBox="0 0 30 30" fill="none" xmlns="http://www.w3.org/2000/svg">
<path d="M9.95631 7.7525C9.72399 7.71869 9.4871 7.76545 9.28506 7.885H9.26756C8.79881 8.16 8.37631 8.50625 8.01631 8.91375C7.71631 9.26 7.55381 9.61 7.51131 9.9475C7.48631 10.1475 7.50381 10.35 7.56256 10.5412L7.58506 10.5538C7.92256 11.545 8.36256 12.4988 8.90006 13.3962C9.59312 14.6569 10.446 15.8227 11.4376 16.865L11.4676 16.9075L11.5151 16.9425L11.5438 16.9763L11.5788 17.0062C12.6247 18.0008 13.7933 18.8577 15.0563 19.5563C16.5001 20.3425 17.3763 20.7137 17.9026 20.8687V20.8763C18.0563 20.9237 18.1963 20.945 18.3376 20.945C18.7857 20.9119 19.2099 20.7297 19.5426 20.4275C19.9488 20.0675 20.2926 19.6438 20.5601 19.1725V19.1638C20.8113 18.6888 20.7263 18.2413 20.3638 17.9375C19.6357 17.3013 18.8483 16.7362 18.0126 16.25C17.4526 15.9462 16.8838 16.13 16.6538 16.4375L16.1626 17.0575C15.9101 17.365 15.4526 17.3225 15.4526 17.3225L15.4401 17.33C12.0263 16.4588 11.1151 13.0025 11.1151 13.0025C11.1151 13.0025 11.0726 12.5325 11.3888 12.2925L12.0038 11.7975C12.2988 11.5575 12.5038 10.99 12.1876 10.43C11.7046 9.59345 11.1406 8.80634 10.5038 8.08C10.3649 7.90906 10.1701 7.79263 9.95381 7.75125L9.95631 7.7525ZM15.7251 6.25C15.5593 6.25 15.4003 6.31585 15.2831 6.43306C15.1659 6.55027 15.1001 6.70924 15.1001 6.875C15.1001 7.04076 15.1659 7.19973 15.2831 7.31694C15.4003 7.43415 15.5593 7.5 15.7251 7.5C17.3051 7.5 18.6176 8.01625 19.6563 9.00625C20.1901 9.5475 20.6063 10.1888 20.8788 10.8913C21.1526 11.595 21.2776 12.3463 21.2451 13.0988C21.2381 13.2645 21.2973 13.4262 21.4096 13.5484C21.5218 13.6705 21.678 13.743 21.8438 13.75C22.0096 13.757 22.1713 13.6978 22.2934 13.5855C22.4156 13.4732 22.4881 13.317 22.4951 13.1512C22.5338 12.2256 22.3802 11.302 22.0438 10.4387C21.706 9.57142 21.1937 8.78265 20.5388 8.12125L20.5263 8.10875C19.2376 6.8775 17.6076 6.25 15.7251 6.25Z" fill="white"/>
<path d="M15.6813 8.30496C15.5155 8.30496 15.3565 8.37081 15.2393 8.48802C15.1221 8.60523 15.0563 8.7642 15.0563 8.92996C15.0563 9.09572 15.1221 9.25469 15.2393 9.3719C15.3565 9.48911 15.5155 9.55496 15.6813 9.55496H15.7025C16.8425 9.63621 17.6725 10.0162 18.2538 10.64C18.85 11.2825 19.1588 12.0812 19.135 13.0687C19.1312 13.2345 19.1934 13.395 19.3079 13.5149C19.4224 13.6348 19.5799 13.7043 19.7456 13.7081C19.9114 13.7119 20.0719 13.6497 20.1918 13.5352C20.3117 13.4207 20.3812 13.2632 20.385 13.0975C20.415 11.8012 19.9975 10.6825 19.17 9.78996V9.78746C18.3238 8.87996 17.1625 8.39996 15.765 8.30621L15.7438 8.30371L15.6813 8.30496Z" fill="white"/>
<path d="M15.6575 10.3989C15.5738 10.3915 15.4896 10.4011 15.4097 10.427C15.3298 10.4529 15.256 10.4946 15.1926 10.5497C15.1292 10.6048 15.0776 10.6721 15.0408 10.7475C15.004 10.823 14.9828 10.9051 14.9784 10.989C14.974 11.0728 14.9866 11.1567 15.0154 11.2356C15.0441 11.3145 15.0885 11.3867 15.1458 11.4481C15.2031 11.5095 15.2722 11.5587 15.3489 11.5927C15.4257 11.6268 15.5085 11.6451 15.5925 11.6464C16.115 11.6739 16.4487 11.8314 16.6587 12.0427C16.87 12.2552 17.0275 12.5964 17.0562 13.1302C17.0578 13.214 17.0762 13.2967 17.1104 13.3733C17.1446 13.4499 17.1939 13.5189 17.2553 13.576C17.3167 13.6332 17.389 13.6774 17.4678 13.706C17.5467 13.7346 17.6305 13.7471 17.7143 13.7427C17.798 13.7382 17.88 13.7169 17.9554 13.6801C18.0308 13.6433 18.098 13.5917 18.153 13.5283C18.208 13.465 18.2497 13.3912 18.2756 13.3115C18.3015 13.2317 18.3111 13.1475 18.3037 13.0639C18.2637 12.3139 18.0287 11.6514 17.5475 11.1639C17.0637 10.6764 16.405 10.4389 15.6575 10.3989Z" fill="white"/>
<path fill-rule="evenodd" clip-rule="evenodd" d="M8.83376 2.97983C12.8113 2.09071 16.9362 2.09071 20.9138 2.97983L21.3375 3.07358C22.5003 3.33352 23.5682 3.91074 24.4226 4.74111C25.277 5.57148 25.8845 6.62248 26.1775 7.77733C27.1871 11.7559 27.1871 15.9237 26.1775 19.9023C25.8845 21.0572 25.277 22.1082 24.4226 22.9385C23.5682 23.7689 22.5003 24.3461 21.3375 24.6061L20.9125 24.6998C18.4213 25.2569 15.865 25.4668 13.3163 25.3236L10 28.2911C9.87498 28.403 9.7222 28.4793 9.55762 28.5121C9.39303 28.5448 9.22267 28.5328 9.06431 28.4773C8.90596 28.4217 8.76542 28.3247 8.65737 28.1963C8.54931 28.0679 8.4777 27.9128 8.45001 27.7473L7.90126 24.4698C6.84898 24.1424 5.89827 23.5506 5.13997 22.7509C4.38167 21.9513 3.84113 20.9705 3.57001 19.9023C2.56032 15.9237 2.56032 11.7559 3.57001 7.77733C3.86303 6.62248 4.4705 5.57148 5.32492 4.74111C6.17935 3.91074 7.24726 3.33352 8.41001 3.07358L8.83376 2.97983ZM20.505 4.80858C16.7966 3.97959 12.9509 3.97959 9.24251 4.80858L8.81751 4.90358C7.99341 5.08815 7.23659 5.49752 6.6311 6.08624C6.02561 6.67496 5.59514 7.41999 5.38751 8.23858C4.45465 11.9145 4.45465 15.7652 5.38751 19.4411C5.59524 20.2598 6.0259 21.005 6.63162 21.5937C7.23735 22.1824 7.99443 22.5917 8.81876 22.7761L8.93126 22.8011C9.11325 22.8418 9.27897 22.9358 9.40722 23.0712C9.53548 23.2066 9.62044 23.3772 9.65126 23.5611L10.0188 25.7586L12.3588 23.6648C12.4522 23.581 12.5615 23.5167 12.6803 23.4759C12.799 23.4351 12.9248 23.4186 13.05 23.4273C15.5488 23.6046 18.0602 23.4172 20.505 22.8711L20.9288 22.7761C21.7531 22.5917 22.5102 22.1824 23.1159 21.5937C23.7216 21.005 24.1523 20.2598 24.36 19.4411C25.2925 15.7661 25.2925 11.9148 24.36 8.23858C24.1523 7.41983 23.7216 6.67469 23.1159 6.08596C22.5102 5.49723 21.7531 5.08794 20.9288 4.90358L20.505 4.80858Z" fill="white"/>
</svg>
